<mxfile host="app.diagrams.net" agent="Mozilla/5.0 (Windows NT 10.0; Win64; x64) AppleWebKit/537.36 (KHTML, like Gecko) Chrome/134.0.0.0 Safari/537.36" version="26.1.1">
  <diagram name="第 1 页" id="9Iu8Gb6HDnmRLWSJVNTP">
    <mxGraphModel dx="1434" dy="833" grid="1" gridSize="10" guides="1" tooltips="1" connect="1" arrows="1" fold="1" page="1" pageScale="1" pageWidth="827" pageHeight="1169" math="0" shadow="0">
      <root>
        <mxCell id="0" />
        <mxCell id="1" parent="0" />
        <mxCell id="CYJVAqYGloL1yQLMluif-1" value="定时任务&lt;div&gt;chronus&lt;/div&gt;" style="shape=umlLifeline;perimeter=lifelinePerimeter;whiteSpace=wrap;html=1;container=1;dropTarget=0;collapsible=0;recursiveResize=0;outlineConnect=0;portConstraint=eastwest;newEdgeStyle={&quot;curved&quot;:0,&quot;rounded&quot;:0};" vertex="1" parent="1">
          <mxGeometry x="20" y="60" width="100" height="760" as="geometry" />
        </mxCell>
        <mxCell id="CYJVAqYGloL1yQLMluif-2" value="marketingadmin" style="shape=umlLifeline;perimeter=lifelinePerimeter;whiteSpace=wrap;html=1;container=1;dropTarget=0;collapsible=0;recursiveResize=0;outlineConnect=0;portConstraint=eastwest;newEdgeStyle={&quot;curved&quot;:0,&quot;rounded&quot;:0};" vertex="1" parent="1">
          <mxGeometry x="200" y="60" width="100" height="760" as="geometry" />
        </mxCell>
        <mxCell id="CYJVAqYGloL1yQLMluif-5" value="" style="html=1;points=[[0,0,0,0,5],[0,1,0,0,-5],[1,0,0,0,5],[1,1,0,0,-5]];perimeter=orthogonalPerimeter;outlineConnect=0;targetShapes=umlLifeline;portConstraint=eastwest;newEdgeStyle={&quot;curved&quot;:0,&quot;rounded&quot;:0};" vertex="1" parent="CYJVAqYGloL1yQLMluif-2">
          <mxGeometry x="45" y="70" width="10" height="80" as="geometry" />
        </mxCell>
        <mxCell id="CYJVAqYGloL1yQLMluif-7" value="" style="html=1;points=[[0,0,0,0,5],[0,1,0,0,-5],[1,0,0,0,5],[1,1,0,0,-5]];perimeter=orthogonalPerimeter;outlineConnect=0;targetShapes=umlLifeline;portConstraint=eastwest;newEdgeStyle={&quot;curved&quot;:0,&quot;rounded&quot;:0};" vertex="1" parent="CYJVAqYGloL1yQLMluif-2">
          <mxGeometry x="45" y="120" width="10" height="40" as="geometry" />
        </mxCell>
        <mxCell id="CYJVAqYGloL1yQLMluif-8" value="查询优惠券方案、营销类&lt;div&gt;商家券-异业发券、已启动&lt;/div&gt;&lt;div&gt;的优惠券方案。&lt;/div&gt;" style="html=1;align=left;spacingLeft=2;endArrow=block;rounded=0;edgeStyle=orthogonalEdgeStyle;curved=0;rounded=0;" edge="1" target="CYJVAqYGloL1yQLMluif-7" parent="CYJVAqYGloL1yQLMluif-2">
          <mxGeometry relative="1" as="geometry">
            <mxPoint x="50" y="120" as="sourcePoint" />
            <Array as="points">
              <mxPoint x="50" y="100" />
              <mxPoint x="80" y="100" />
              <mxPoint x="80" y="150" />
            </Array>
          </mxGeometry>
        </mxCell>
        <mxCell id="CYJVAqYGloL1yQLMluif-9" value="" style="html=1;points=[[0,0,0,0,5],[0,1,0,0,-5],[1,0,0,0,5],[1,1,0,0,-5]];perimeter=orthogonalPerimeter;outlineConnect=0;targetShapes=umlLifeline;portConstraint=eastwest;newEdgeStyle={&quot;curved&quot;:0,&quot;rounded&quot;:0};" vertex="1" parent="CYJVAqYGloL1yQLMluif-2">
          <mxGeometry x="45" y="160" width="10" height="40" as="geometry" />
        </mxCell>
        <mxCell id="CYJVAqYGloL1yQLMluif-10" value="根据优惠券方案编号&lt;div&gt;查询关联优惠券模板信息&lt;/div&gt;" style="html=1;align=left;spacingLeft=2;endArrow=block;rounded=0;edgeStyle=orthogonalEdgeStyle;curved=0;rounded=0;" edge="1" target="CYJVAqYGloL1yQLMluif-9" parent="CYJVAqYGloL1yQLMluif-2">
          <mxGeometry relative="1" as="geometry">
            <mxPoint x="50" y="160" as="sourcePoint" />
            <Array as="points">
              <mxPoint x="80" y="190" />
            </Array>
          </mxGeometry>
        </mxCell>
        <mxCell id="CYJVAqYGloL1yQLMluif-11" value="" style="html=1;points=[[0,0,0,0,5],[0,1,0,0,-5],[1,0,0,0,5],[1,1,0,0,-5]];perimeter=orthogonalPerimeter;outlineConnect=0;targetShapes=umlLifeline;portConstraint=eastwest;newEdgeStyle={&quot;curved&quot;:0,&quot;rounded&quot;:0};" vertex="1" parent="CYJVAqYGloL1yQLMluif-2">
          <mxGeometry x="45" y="200" width="10" height="40" as="geometry" />
        </mxCell>
        <mxCell id="CYJVAqYGloL1yQLMluif-12" value="查询优惠券模板关联的&lt;div&gt;微信商家券配置信息&lt;/div&gt;" style="html=1;align=left;spacingLeft=2;endArrow=block;rounded=0;edgeStyle=orthogonalEdgeStyle;curved=0;rounded=0;" edge="1" target="CYJVAqYGloL1yQLMluif-11" parent="CYJVAqYGloL1yQLMluif-2">
          <mxGeometry relative="1" as="geometry">
            <mxPoint x="50" y="200" as="sourcePoint" />
            <Array as="points">
              <mxPoint x="80" y="230" />
            </Array>
          </mxGeometry>
        </mxCell>
        <mxCell id="CYJVAqYGloL1yQLMluif-3" value="微信支付" style="shape=umlLifeline;perimeter=lifelinePerimeter;whiteSpace=wrap;html=1;container=1;dropTarget=0;collapsible=0;recursiveResize=0;outlineConnect=0;portConstraint=eastwest;newEdgeStyle={&quot;curved&quot;:0,&quot;rounded&quot;:0};" vertex="1" parent="1">
          <mxGeometry x="390" y="60" width="100" height="760" as="geometry" />
        </mxCell>
        <mxCell id="CYJVAqYGloL1yQLMluif-4" value=":Object" style="shape=umlLifeline;perimeter=lifelinePerimeter;whiteSpace=wrap;html=1;container=1;dropTarget=0;collapsible=0;recursiveResize=0;outlineConnect=0;portConstraint=eastwest;newEdgeStyle={&quot;curved&quot;:0,&quot;rounded&quot;:0};" vertex="1" parent="1">
          <mxGeometry x="600" y="60" width="100" height="760" as="geometry" />
        </mxCell>
        <mxCell id="CYJVAqYGloL1yQLMluif-6" value="发起任务调用" style="html=1;verticalAlign=bottom;startArrow=oval;endArrow=block;startSize=8;curved=0;rounded=0;entryX=0;entryY=0;entryDx=0;entryDy=5;" edge="1" target="CYJVAqYGloL1yQLMluif-5" parent="1" source="CYJVAqYGloL1yQLMluif-1">
          <mxGeometry relative="1" as="geometry">
            <mxPoint x="180" y="135" as="sourcePoint" />
          </mxGeometry>
        </mxCell>
      </root>
    </mxGraphModel>
  </diagram>
</mxfile>
